<svg width="512" height="512" viewBox="0 0 512 512" fill="none" xmlns="http://www.w3.org/2000/svg">
<rect width="512" height="512" rx="256" fill="#CEFF00"/>
<path d="M261.909 89.5273C265.508 144.946 267.452 200.402 267.452 255.82C267.452 311.239 265.501 366.665 261.909 422.083H250.824C247.343 366.665 245.281 311.239 245.281 255.82C245.281 200.402 247.343 144.946 250.824 89.5273H261.909ZM217.625 239.125C220.798 243.85 223.153 249.054 223.168 254.516C223.153 259.977 220.798 264.876 217.625 269.608L134.486 388.774H123.401C123.494 388.602 181.607 280.69 192.684 275.151V266.837C176.064 266.837 45.9404 261.301 45.8047 261.295V250.21C45.9345 250.204 176.064 244.667 192.684 244.667V236.354C181.606 225.275 123.477 122.864 123.401 122.73H134.486L217.625 239.125ZM389.399 122.73C389.324 122.864 331.195 225.275 320.117 236.354V244.667C336.737 244.667 466.872 250.205 466.996 250.21V261.295C466.855 261.301 336.736 266.837 320.117 266.837V275.151C331.194 286.228 389.304 388.606 389.399 388.774H378.314L295.176 269.608C292.003 264.876 289.648 259.977 289.633 254.516C289.648 249.054 292.003 243.85 295.176 239.124L378.314 122.73H389.399Z" fill="#141414"/>
</svg>
